<svg width="100" height="67" viewBox="0 0 100 67" fill="none" xmlns="http://www.w3.org/2000/svg">
<g clip-path="url(#clip0_187_4078)">
<path fill-rule="evenodd" clip-rule="evenodd" d="M57.3111 28.3069C57.3042 28.3131 57.1342 28.3251 56.9332 28.3335C56.7321 28.3419 56.5595 28.3534 56.5495 28.3592C56.5396 28.3649 56.4286 28.3774 56.3028 28.387C56.1772 28.3966 56.0664 28.4093 56.0567 28.4152C56.0473 28.4212 55.9601 28.4332 55.8634 28.4418C55.3695 28.4859 54.6141 28.657 54.1786 28.8234C54.0801 28.861 53.9788 28.898 53.9538 28.9057C53.8489 28.9375 53.8394 29.0144 53.822 29.9744C53.8034 31.0038 53.7995 30.9791 53.9783 31.0009C54.0371 31.0081 54.1476 30.9914 54.2553 30.9589C54.6517 30.8393 54.8107 30.7954 55.2279 30.6901C55.759 30.5561 56.3462 30.4303 56.672 30.3807C57.2316 30.2956 58.5044 30.3118 58.765 30.4074C58.8164 30.4263 58.9438 30.4611 59.0482 30.4847C59.266 30.534 59.4389 30.6156 59.6287 30.7588C59.7673 30.8635 59.8525 31.0184 59.9218 31.2914C59.9668 31.4694 59.9701 31.4921 59.988 31.7623L60.0049 32.0158L59.777 31.997C58.8737 31.9228 57.8469 31.8929 57.4007 31.9278L56.6848 31.984C55.9626 32.0406 55.0675 32.2272 54.6205 32.4144C54.0328 32.6604 53.4671 33.1125 53.3052 33.4653C52.9725 34.1906 52.9026 35.1186 53.1152 35.9844C53.1965 36.3151 53.2655 36.5019 53.3783 36.6952C53.4175 36.7626 53.4497 36.8288 53.4497 36.8424C53.4497 36.9161 54.0491 37.4458 54.345 37.6335C54.4223 37.6824 54.4893 37.7313 54.4939 37.7422C54.4985 37.7529 54.5177 37.7618 54.5363 37.7618C54.555 37.7618 54.6489 37.7972 54.745 37.8404C54.8414 37.8836 55.0123 37.9459 55.1248 37.9788C55.2373 38.0117 55.3811 38.0559 55.4445 38.0772C55.5076 38.0984 55.7493 38.1483 55.9815 38.1879C56.4022 38.2599 56.4066 38.2601 57.5799 38.2603C58.765 38.2605 59.0783 38.2435 59.498 38.1561C60.0829 38.0342 60.3504 37.9614 60.5721 37.8635C61.0368 37.6584 61.1547 37.5884 61.3882 37.3786C61.5368 37.2453 61.7406 37.0352 61.8066 36.9473C61.9291 36.7843 62.1946 36.2342 62.2467 36.0355C62.2761 35.923 62.3107 35.8119 62.3235 35.7886C62.3761 35.6931 62.4664 35.0491 62.4933 34.5778C62.5135 34.2241 62.5114 32.8839 62.4899 32.5063C62.4644 32.0503 62.4053 31.5986 62.336 31.3299C62.2091 30.8373 62.1378 30.6365 61.9731 30.3079C61.5583 29.4803 60.6982 28.7986 59.7026 28.5082C59.5379 28.4602 59.2049 28.3975 58.9226 28.3614C58.8592 28.3532 58.7786 28.3412 58.7436 28.3346C58.6569 28.3184 57.3267 28.2926 57.3111 28.3069ZM68.8582 28.456C68.4856 28.4749 68.3953 28.4852 67.9759 28.5573C67.5928 28.6231 67.3514 28.6897 67.0823 28.8039C66.8918 28.8848 66.8079 28.9293 66.555 29.0841C66.5276 29.1009 66.4345 29.1567 66.3481 29.2083C66.1645 29.3181 65.8225 29.6627 65.599 29.9636C65.4223 30.2016 65.1116 30.8122 65.1116 30.9217C65.1116 30.9436 65.0952 30.9932 65.0752 31.0319C65.0011 31.1749 64.8561 31.8515 64.8031 32.3003C64.7553 32.7053 64.7502 32.857 64.7604 33.5918C64.7755 34.677 64.8264 35.0041 65.1174 35.8901C65.2264 36.2226 65.3676 36.4773 65.6399 36.8343C65.8236 37.0748 66.1928 37.4393 66.3391 37.5243C66.4023 37.561 66.4598 37.5979 66.467 37.6061C66.4908 37.6342 66.5816 37.6843 66.8123 37.7967C67.0596 37.9174 67.2018 37.9685 67.4951 38.0421C67.5976 38.0678 67.7449 38.1064 67.8224 38.1277C68.2539 38.2467 68.9027 38.2926 70.0474 38.2851C70.8029 38.2801 70.9757 38.2716 71.2494 38.2261C71.809 38.133 72.4007 37.9594 72.7327 37.791C72.9836 37.6637 73.103 37.5962 73.1291 37.5668C73.1432 37.5509 73.2524 37.4583 73.3721 37.3609C73.6429 37.1403 73.7557 37.0333 73.7557 36.9971C73.7557 36.9816 73.7654 36.969 73.7774 36.969C73.7991 36.969 74.0475 36.6141 74.049 36.581C74.0493 36.5716 74.0728 36.5371 74.1012 36.5043C74.1296 36.4715 74.1761 36.4044 74.205 36.3552C74.2702 36.2437 74.4462 35.8109 74.4462 35.7622C74.4462 35.7423 74.4564 35.7151 74.4689 35.7018C74.5359 35.6305 74.6976 34.7683 74.7554 34.1749C74.7832 33.8861 74.7756 32.5615 74.7451 32.4168C74.7377 32.3816 74.7244 32.278 74.7155 32.1866C74.649 31.5041 74.4408 30.7809 74.1984 30.3905C74.1659 30.338 74.1393 30.287 74.1393 30.2772C74.1393 30.2673 74.0782 30.1779 74.0037 30.0785C73.9291 29.9791 73.8342 29.8517 73.793 29.7954C73.7516 29.7391 73.6501 29.6298 73.5674 29.5524C73.4209 29.4156 73.1081 29.1688 73.081 29.1688C73.0736 29.1688 73.0158 29.1338 72.9521 29.0909C72.7757 28.9718 72.3882 28.796 72.0864 28.6982C71.8192 28.6116 71.3831 28.5311 70.8786 28.4754C70.5845 28.4429 69.3495 28.431 68.8582 28.456ZM80.5549 28.4645C80.5497 28.4696 80.4536 28.4809 80.3411 28.4898C80.2285 28.4987 80.0615 28.5167 79.9702 28.5298C79.8787 28.543 79.7582 28.5601 79.7025 28.5679C79.4656 28.6011 78.9928 28.7485 78.781 28.8552C78.5539 28.9696 78.1276 29.2782 77.9987 29.4215C77.8696 29.5652 77.5962 30.0833 77.545 30.2813C77.4911 30.4908 77.4345 30.8477 77.4136 31.1102C77.3865 31.4544 77.3928 38.083 77.4205 38.1106C77.4466 38.1365 79.7032 38.1395 79.7291 38.1137C79.7395 38.1033 79.7564 36.6072 79.7667 34.789C79.7769 32.9709 79.793 31.443 79.8022 31.3938C79.8393 31.1945 79.927 30.9453 79.9876 30.8656C80.0718 30.7555 80.2605 30.6208 80.4052 30.5679C80.7001 30.46 81.0285 30.4265 81.6709 30.4387C82.4512 30.4536 82.6586 30.4973 82.9026 30.6987C83.1348 30.8901 83.2036 31.0443 83.2356 31.4449C83.2483 31.6067 83.2616 33.1373 83.265 34.8463C83.2683 36.5553 83.2772 37.9899 83.2852 38.0343C83.2985 38.1091 83.3084 38.116 83.4187 38.1268C83.6171 38.1462 85.5909 38.1341 85.6117 38.1132C85.6224 38.1025 85.6344 36.6237 85.6385 34.8269C85.6426 33.0301 85.6516 31.4959 85.6587 31.4176C85.6656 31.3392 85.6902 31.2069 85.7132 31.1235C85.7362 31.0401 85.761 30.9463 85.7682 30.9151C85.7897 30.8211 86.0147 30.617 86.1505 30.5683C86.5582 30.4221 87.6059 30.3862 88.2271 30.4972C88.5962 30.5632 88.9038 30.7755 88.9798 31.0169C89.1048 31.4138 89.1084 31.5049 89.124 34.9017C89.132 36.6553 89.1478 38.0993 89.1591 38.1106C89.1923 38.1439 91.3255 38.1551 91.4096 38.1224L91.4812 38.0945L91.4697 34.6739C91.4636 32.7925 91.4513 31.1898 91.4426 31.1125C91.37 30.4595 91.2976 30.1862 91.1078 29.8462C90.9406 29.5468 90.6971 29.2913 90.3889 29.0916C89.6066 28.5848 88.9228 28.4401 87.4123 28.4614C86.9832 28.4675 86.5919 28.479 86.5428 28.487C86.4935 28.495 86.3958 28.5075 86.3254 28.5148C86.0201 28.5465 85.6372 28.6266 85.3017 28.7292C85.259 28.7422 85.1035 28.8133 84.9564 28.8872C84.7081 29.0118 84.6746 29.0218 84.4969 29.0244C84.3173 29.0269 84.2887 29.0192 84.0493 28.9036C83.6539 28.7127 83.3777 28.6301 82.8729 28.5517C82.289 28.461 82.1604 28.4526 81.3732 28.454C80.9282 28.4548 80.56 28.4595 80.5549 28.4645ZM42.3752 28.5841C42.2783 28.6041 42.2006 28.6743 42.1333 28.803C42.1052 28.8565 42.0755 28.9061 42.0671 28.9131C42.0586 28.9201 42.0124 28.9834 41.964 29.0538C41.9157 29.1241 41.8533 29.2092 41.8257 29.2428C41.7978 29.2765 41.729 29.3595 41.6727 29.4273C41.5246 29.6055 41.4717 29.6795 41.4039 29.8018C41.3707 29.8616 41.3341 29.9105 41.3226 29.9105C41.3111 29.9105 41.3019 29.9252 41.3019 29.9432C41.3019 29.9612 41.2789 29.9925 41.2507 30.0128C41.2226 30.0331 41.1996 30.0631 41.1996 30.0796C41.1996 30.0961 41.1822 30.1162 41.1612 30.1243C41.14 30.1324 41.1229 30.1557 41.1229 30.1761C41.1229 30.1965 41.1142 30.2169 41.1037 30.2217C41.0643 30.2391 40.6114 30.81 40.6114 30.842C40.6114 30.8501 40.5912 30.8789 40.5666 30.906C40.5421 30.933 40.5184 30.9607 40.4955 30.9892C40.3344 31.1969 40.2002 31.3771 40.1275 31.4828C40.0245 31.6328 39.8633 31.7965 39.8518 31.7626C39.8475 31.7496 39.7513 31.6125 39.6383 31.4577C39.4022 31.1345 39.2345 30.9014 39.1792 30.8198C39.158 30.7886 39.0936 30.7065 39.036 30.6373C38.9785 30.5681 38.8752 30.4252 38.8066 30.3197C38.7381 30.2142 38.6693 30.1164 38.6537 30.1023C38.6381 30.0882 38.5345 29.9501 38.4238 29.7954C38.313 29.6407 38.1634 29.4393 38.091 29.3479C38.0189 29.2564 37.921 29.1241 37.8737 29.0538C37.8266 28.9834 37.7729 28.9106 37.7545 28.892C37.6918 28.8282 37.5655 28.6318 37.586 28.63C37.5972 28.629 37.5834 28.6183 37.5553 28.6062C37.5271 28.5941 36.8819 28.5834 36.1216 28.5824C35.0234 28.581 34.7296 28.5875 34.6935 28.6139C34.6528 28.6436 34.6513 28.66 34.6784 28.7608C34.7145 28.895 34.7406 28.9339 35.0646 29.3351C35.2009 29.5039 35.3625 29.7071 35.4236 29.7868C35.4848 29.8665 35.627 30.0465 35.7395 30.1868C35.852 30.3271 35.9671 30.474 35.9952 30.5132C36.0234 30.5523 36.0643 30.6025 36.086 30.6247C36.164 30.7035 36.3881 30.9747 36.5231 31.1537C36.5983 31.2537 36.7558 31.4493 36.8729 31.5884C37.1271 31.8906 37.13 31.8939 37.209 32.0076C37.2433 32.0568 37.2778 32.1028 37.2857 32.1099C37.2934 32.1169 37.3338 32.1687 37.3755 32.225C37.4169 32.2812 37.4629 32.34 37.4775 32.3557C37.4921 32.3713 37.5379 32.427 37.579 32.4794C37.6202 32.5318 37.688 32.6111 37.7297 32.6556C37.7716 32.7001 37.8527 32.7997 37.9105 32.8771C37.968 32.9545 38.0212 33.0235 38.0286 33.0306C38.0361 33.0376 38.1023 33.1163 38.1757 33.2053C38.2905 33.3444 38.3051 33.3736 38.2777 33.4113C38.1245 33.6218 37.9315 33.8643 37.8348 33.9673C37.7706 34.0358 37.6987 34.1207 37.6749 34.1558C37.6514 34.191 37.6131 34.2427 37.5898 34.2709C37.4374 34.4564 37.3123 34.6172 37.3123 34.6274C37.3123 34.634 37.2862 34.6663 37.2548 34.6991C37.1903 34.7657 37.0108 34.982 36.9586 35.0556C36.9399 35.0819 36.8855 35.1463 36.8374 35.1987C36.7893 35.251 36.7497 35.3033 36.7497 35.3149C36.7497 35.3264 36.7354 35.3503 36.7177 35.3679C36.7001 35.3855 36.6512 35.4442 36.609 35.4984C36.4998 35.6384 36.3857 35.7734 36.3389 35.8182C36.317 35.8393 36.2379 35.9371 36.1638 36.0355C36.019 36.2272 35.8743 36.4042 35.7894 36.4926C35.7605 36.5226 35.7293 36.5673 35.7198 36.5919C35.7103 36.6164 35.6909 36.6365 35.6763 36.6365C35.6617 36.6365 35.65 36.6538 35.65 36.6749C35.65 36.696 35.6408 36.7133 35.6298 36.7133C35.6188 36.7133 35.5891 36.7481 35.564 36.7906C35.539 36.8332 35.4932 36.8953 35.4628 36.9286C35.4321 36.9618 35.3733 37.0316 35.3321 37.0836C35.2909 37.1355 35.2275 37.2113 35.1914 37.252C35.1551 37.2927 35.0797 37.391 35.0234 37.4705C34.9671 37.5499 34.895 37.6428 34.8636 37.6768C34.8319 37.7108 34.806 37.7495 34.806 37.7629C34.806 37.7764 34.7968 37.7874 34.7858 37.7874C34.7482 37.7874 34.6782 37.9359 34.6782 38.0159C34.6782 38.075 34.6932 38.1019 34.7357 38.1189C34.7677 38.1317 35.4019 38.1399 36.1699 38.1373C37.5105 38.1328 37.5476 38.1313 37.5837 38.0819C37.6041 38.054 37.6739 37.9714 37.7391 37.8983C37.8041 37.8253 37.8928 37.7147 37.9363 37.6525C38.0102 37.5471 38.2005 37.292 38.2736 37.2008C38.2913 37.1788 38.3619 37.0918 38.4309 37.0074C38.4997 36.923 38.635 36.7446 38.7314 36.611C38.8278 36.4773 38.9214 36.3565 38.9393 36.3424C38.968 36.32 39.0317 36.2414 39.1672 36.0611C39.3575 35.8084 39.4992 35.6242 39.5114 35.6136C39.5196 35.6065 39.5905 35.5087 39.669 35.3962C39.8273 35.1691 39.9748 34.9998 40.0142 34.9998C40.0286 34.9998 40.0784 35.0589 40.1252 35.131C40.172 35.2032 40.2782 35.3479 40.3613 35.4525C40.4444 35.557 40.5881 35.754 40.6807 35.8902C40.8513 36.141 40.9316 36.2497 41.015 36.3424C41.0827 36.4182 41.2763 36.6832 41.2763 36.7005C41.2763 36.7087 41.3252 36.7811 41.3848 36.8614C41.4443 36.9417 41.517 37.0422 41.5464 37.0847C41.5755 37.1273 41.618 37.1848 41.6408 37.2126C41.7454 37.3398 41.8571 37.4852 41.9157 37.57C41.9507 37.6209 41.9916 37.6763 42.0065 37.693C42.064 37.7586 42.197 37.9642 42.197 37.9879C42.197 38.0017 42.2323 38.0428 42.2755 38.0792L42.3543 38.1454L43.7013 38.1451C44.4422 38.1449 45.0733 38.1381 45.1035 38.1299C45.146 38.1185 45.1608 38.0915 45.1685 38.0117C45.1744 37.949 45.1654 37.8951 45.1455 37.8752C45.1273 37.857 45.1125 37.8361 45.1125 37.8288C45.1125 37.8214 45.0746 37.7775 45.0286 37.7311C44.9825 37.6847 44.9281 37.6132 44.9071 37.5722C44.8864 37.5312 44.7943 37.4104 44.7025 37.3037C44.6107 37.197 44.5015 37.0636 44.4596 37.0074C44.2987 36.7905 44.001 36.4188 43.9818 36.4106C43.9706 36.4059 43.9616 36.3876 43.9616 36.3698C43.9616 36.3521 43.9373 36.3156 43.9077 36.2888C43.878 36.262 43.788 36.1538 43.7077 36.0483C43.4755 35.7438 43.3351 35.5637 43.1696 35.3578C43.0682 35.2311 42.9683 35.1032 42.8699 34.9742C42.7901 34.8687 42.7174 34.7766 42.7087 34.7696C42.689 34.7535 42.3975 34.3702 42.3632 34.315C42.3492 34.2924 42.3128 34.248 42.2827 34.2163C42.2118 34.1421 41.9924 33.857 41.9924 33.8392C41.9924 33.8318 41.9663 33.7978 41.9349 33.7638C41.7303 33.5436 41.5832 33.3325 41.5832 33.2589C41.5832 33.2299 41.6103 33.1961 41.6471 33.1793C41.6822 33.1633 41.7111 33.1405 41.7111 33.1286C41.7111 33.1167 41.7395 33.0822 41.7743 33.052C41.809 33.0217 41.8691 32.9499 41.908 32.8923C42.0116 32.7384 42.1389 32.5772 42.2939 32.404C42.4576 32.2212 42.4696 32.2068 42.5824 32.0587C42.6305 31.9954 42.6775 31.9379 42.6867 31.9309C42.6957 31.9238 42.7543 31.849 42.8164 31.7646C42.8786 31.6802 42.9747 31.558 43.03 31.4931C43.1415 31.362 43.1555 31.3446 43.3287 31.1253C43.3954 31.0409 43.4655 30.9546 43.4844 30.9335C43.5031 30.9124 43.5806 30.8145 43.6563 30.7161C43.732 30.6176 43.8555 30.4623 43.9309 30.3708C44.0061 30.2794 44.0859 30.1816 44.1082 30.1534C44.1302 30.1253 44.1956 30.0487 44.2532 29.9832C44.3107 29.9178 44.3695 29.8487 44.3836 29.8298C44.3977 29.8109 44.4432 29.7493 44.4849 29.6931C44.57 29.5784 44.7736 29.333 44.969 29.1099C45.1045 28.9552 45.1854 28.7957 45.1877 28.6777C45.1889 28.6192 45.1764 28.6064 45.1061 28.5944C44.9864 28.5742 42.4699 28.5647 42.3752 28.5841ZM47.8246 28.6294C47.7914 28.6915 47.7985 38.078 47.8318 38.1113C47.8597 38.1392 50.1396 38.1392 50.1675 38.1113C50.1928 38.0861 50.1887 28.6359 50.1636 28.6107C50.1542 28.6012 49.6302 28.59 48.9992 28.5858C47.874 28.5783 47.8515 28.5792 47.8246 28.6294ZM94.7545 28.6038C94.6959 28.614 94.6632 28.6358 94.655 28.6701C94.6483 28.6983 94.6417 30.8183 94.6399 33.3813C94.6373 37.6792 94.6404 38.0446 94.6793 38.0835C94.7164 38.1207 94.8358 38.1272 95.6895 38.1392C96.2219 38.1466 96.7352 38.1444 96.8301 38.1342L97.0027 38.1158V28.6132L96.8592 28.5964C96.6853 28.576 94.8772 28.5823 94.7545 28.6038ZM70.3597 30.4237C71.0954 30.4999 71.5796 30.6922 71.8913 31.0321C72.266 31.4407 72.3685 31.8172 72.4005 32.9027C72.4409 34.2775 72.356 35.0502 72.1217 35.4345C71.9731 35.6783 71.611 35.9869 71.3136 36.1236C70.8896 36.3183 70.5722 36.368 69.7533 36.368C69.1091 36.368 68.9288 36.3482 68.504 36.2306C68.171 36.1383 67.8657 35.9649 67.6437 35.7418C67.5094 35.6067 67.3358 35.2861 67.2698 35.0509C67.1549 34.642 67.0805 34.0441 67.0813 33.5392C67.0833 32.4259 67.1795 31.8119 67.4225 31.3639C67.5327 31.161 67.7953 30.8551 67.9153 30.7905C68.0539 30.7157 68.2582 30.6124 68.3339 30.5788C68.4168 30.542 68.8183 30.4477 68.9989 30.4226C69.2155 30.3926 70.0656 30.3932 70.3597 30.4237ZM59.0505 33.8521C59.2121 33.8632 59.3732 33.8786 59.4085 33.8862C59.4435 33.8939 59.5701 33.9071 59.6898 33.9156C59.8092 33.9241 59.9302 33.9348 59.9583 33.9393C59.9865 33.9438 60.0182 33.9483 60.0292 33.9493C60.0537 33.9517 60.0297 34.6686 59.9929 35.0216C59.9642 35.299 59.8778 35.6153 59.7939 35.7512C59.6844 35.9281 59.3714 36.1474 59.1724 36.1863C59.1405 36.1926 59.0625 36.2168 58.9993 36.2401C58.784 36.3193 58.2952 36.3517 57.4393 36.3435C56.9961 36.3392 56.5876 36.3282 56.5314 36.3189C56.2091 36.2658 55.8902 36.1658 55.712 36.0616C55.588 35.9892 55.389 35.743 55.3041 35.5569C55.1933 35.3138 55.1647 34.7869 55.2532 34.6144C55.2915 34.5396 55.4417 34.3415 55.536 34.2413C55.6255 34.1464 56.0327 33.988 56.2841 33.9506C56.5045 33.9176 57.0577 33.8529 57.2219 33.8408C57.4556 33.8235 58.7517 33.8315 59.0505 33.8521Z" fill="black"/>
<path fill-rule="evenodd" clip-rule="evenodd" d="M57.3111 28.3069C57.3042 28.3131 57.1342 28.3251 56.9332 28.3335C56.7321 28.3419 56.5595 28.3534 56.5495 28.3592C56.5396 28.3649 56.4286 28.3774 56.3028 28.387C56.1772 28.3966 56.0664 28.4093 56.0567 28.4152C56.0473 28.4212 55.9601 28.4332 55.8634 28.4418C55.3695 28.4859 54.6141 28.657 54.1786 28.8234C54.0801 28.861 53.9788 28.898 53.9538 28.9057C53.8489 28.9375 53.8394 29.0144 53.822 29.9744C53.8034 31.0038 53.7995 30.9791 53.9783 31.0009C54.0371 31.0081 54.1476 30.9914 54.2553 30.9589C54.6517 30.8393 54.8107 30.7954 55.2279 30.6901C55.759 30.5561 56.3462 30.4303 56.672 30.3807C57.2316 30.2956 58.5044 30.3118 58.765 30.4074C58.8164 30.4263 58.9438 30.4611 59.0482 30.4847C59.266 30.534 59.4389 30.6156 59.6287 30.7588C59.7673 30.8635 59.8525 31.0184 59.9218 31.2914C59.9668 31.4694 59.9701 31.4921 59.988 31.7623L60.0049 32.0158L59.777 31.997C58.8737 31.9228 57.8469 31.8929 57.4007 31.9278L56.6848 31.984C55.9626 32.0406 55.0675 32.2272 54.6205 32.4144C54.0328 32.6604 53.4671 33.1125 53.3052 33.4653C52.9725 34.1906 52.9026 35.1186 53.1152 35.9844C53.1965 36.3151 53.2655 36.5019 53.3783 36.6952C53.4175 36.7626 53.4497 36.8288 53.4497 36.8424C53.4497 36.9161 54.0491 37.4458 54.345 37.6335C54.4223 37.6824 54.4893 37.7313 54.4939 37.7422C54.4985 37.7529 54.5177 37.7618 54.5363 37.7618C54.555 37.7618 54.6489 37.7972 54.745 37.8404C54.8414 37.8836 55.0123 37.9459 55.1248 37.9788C55.2373 38.0117 55.3811 38.0559 55.4445 38.0772C55.5076 38.0984 55.7493 38.1483 55.9815 38.1879C56.4022 38.2599 56.4066 38.2601 57.5799 38.2603C58.765 38.2605 59.0783 38.2435 59.498 38.1561C60.0829 38.0342 60.3504 37.9614 60.5721 37.8635C61.0368 37.6584 61.1547 37.5884 61.3882 37.3786C61.5368 37.2453 61.7406 37.0352 61.8066 36.9473C61.9291 36.7843 62.1946 36.2342 62.2467 36.0355C62.2761 35.923 62.3107 35.8119 62.3235 35.7886C62.3761 35.6931 62.4664 35.0491 62.4933 34.5778C62.5135 34.2241 62.5114 32.8839 62.4899 32.5063C62.4644 32.0503 62.4053 31.5986 62.336 31.3299C62.2091 30.8373 62.1378 30.6365 61.9731 30.3079C61.5583 29.4803 60.6982 28.7986 59.7026 28.5082C59.5379 28.4602 59.2049 28.3975 58.9226 28.3614C58.8592 28.3532 58.7786 28.3412 58.7436 28.3346C58.6569 28.3184 57.3267 28.2926 57.3111 28.3069ZM68.8582 28.456C68.4856 28.4749 68.3953 28.4852 67.9759 28.5573C67.5928 28.6231 67.3514 28.6897 67.0823 28.8039C66.8918 28.8848 66.8079 28.9293 66.555 29.0841C66.5276 29.1009 66.4345 29.1567 66.3481 29.2083C66.1645 29.3181 65.8225 29.6627 65.599 29.9636C65.4223 30.2016 65.1116 30.8122 65.1116 30.9217C65.1116 30.9436 65.0952 30.9932 65.0752 31.0319C65.0011 31.1749 64.8561 31.8515 64.8031 32.3003C64.7553 32.7053 64.7502 32.857 64.7604 33.5918C64.7755 34.677 64.8264 35.0041 65.1174 35.8901C65.2264 36.2226 65.3676 36.4773 65.6399 36.8343C65.8236 37.0748 66.1928 37.4393 66.3391 37.5243C66.4023 37.561 66.4598 37.5979 66.467 37.6061C66.4908 37.6342 66.5816 37.6843 66.8123 37.7967C67.0596 37.9174 67.2018 37.9685 67.4951 38.0421C67.5976 38.0678 67.7449 38.1064 67.8224 38.1277C68.2539 38.2467 68.9027 38.2926 70.0474 38.2851C70.8029 38.2801 70.9757 38.2716 71.2494 38.2261C71.809 38.133 72.4007 37.9594 72.7327 37.791C72.9836 37.6637 73.103 37.5962 73.1291 37.5668C73.1432 37.5509 73.2524 37.4583 73.3721 37.3609C73.6429 37.1403 73.7557 37.0333 73.7557 36.9971C73.7557 36.9816 73.7654 36.969 73.7774 36.969C73.7991 36.969 74.0475 36.6141 74.049 36.581C74.0493 36.5716 74.0728 36.5371 74.1012 36.5043C74.1296 36.4715 74.1761 36.4044 74.205 36.3552C74.2702 36.2437 74.4462 35.8109 74.4462 35.7622C74.4462 35.7423 74.4564 35.7151 74.4689 35.7018C74.5359 35.6305 74.6976 34.7683 74.7554 34.1749C74.7832 33.8861 74.7756 32.5615 74.7451 32.4168C74.7377 32.3816 74.7244 32.278 74.7155 32.1866C74.649 31.5041 74.4408 30.7809 74.1984 30.3905C74.1659 30.338 74.1393 30.287 74.1393 30.2772C74.1393 30.2673 74.0782 30.1779 74.0037 30.0785C73.9291 29.9791 73.8342 29.8517 73.793 29.7954C73.7516 29.7391 73.6501 29.6298 73.5674 29.5524C73.4209 29.4156 73.1081 29.1688 73.081 29.1688C73.0736 29.1688 73.0158 29.1338 72.9521 29.0909C72.7757 28.9718 72.3882 28.796 72.0864 28.6982C71.8192 28.6116 71.3831 28.5311 70.8786 28.4754C70.5845 28.4429 69.3495 28.431 68.8582 28.456ZM80.5549 28.4645C80.5497 28.4696 80.4536 28.4809 80.3411 28.4898C80.2285 28.4987 80.0615 28.5167 79.9702 28.5298C79.8787 28.543 79.7582 28.5601 79.7025 28.5679C79.4656 28.6011 78.9928 28.7485 78.781 28.8552C78.5539 28.9696 78.1276 29.2782 77.9987 29.4215C77.8696 29.5652 77.5962 30.0833 77.545 30.2813C77.4911 30.4908 77.4345 30.8477 77.4136 31.1102C77.3865 31.4544 77.3928 38.083 77.4205 38.1106C77.4466 38.1365 79.7032 38.1395 79.7291 38.1137C79.7395 38.1033 79.7564 36.6072 79.7667 34.789C79.7769 32.9709 79.793 31.443 79.8022 31.3938C79.8393 31.1945 79.927 30.9453 79.9876 30.8656C80.0718 30.7555 80.2605 30.6208 80.4052 30.5679C80.7001 30.46 81.0285 30.4265 81.6709 30.4387C82.4512 30.4536 82.6586 30.4973 82.9026 30.6987C83.1348 30.8901 83.2036 31.0443 83.2356 31.4449C83.2483 31.6067 83.2616 33.1373 83.265 34.8463C83.2683 36.5553 83.2772 37.9899 83.2852 38.0343C83.2985 38.1091 83.3084 38.116 83.4187 38.1268C83.6171 38.1462 85.5909 38.1341 85.6117 38.1132C85.6224 38.1025 85.6344 36.6237 85.6385 34.8269C85.6426 33.0301 85.6516 31.4959 85.6587 31.4176C85.6656 31.3392 85.6902 31.2069 85.7132 31.1235C85.7362 31.0401 85.761 30.9463 85.7682 30.9151C85.7897 30.8211 86.0147 30.617 86.1505 30.5683C86.5582 30.4221 87.6059 30.3862 88.2271 30.4972C88.5962 30.5632 88.9038 30.7755 88.9798 31.0169C89.1048 31.4138 89.1084 31.5049 89.124 34.9017C89.132 36.6553 89.1478 38.0993 89.1591 38.1106C89.1923 38.1439 91.3255 38.1551 91.4096 38.1224L91.4812 38.0945L91.4697 34.6739C91.4636 32.7925 91.4513 31.1898 91.4426 31.1125C91.37 30.4595 91.2976 30.1862 91.1078 29.8462C90.9406 29.5468 90.6971 29.2913 90.3889 29.0916C89.6066 28.5848 88.9228 28.4401 87.4123 28.4614C86.9832 28.4675 86.5919 28.479 86.5428 28.487C86.4935 28.495 86.3958 28.5075 86.3254 28.5148C86.0201 28.5465 85.6372 28.6266 85.3017 28.7292C85.259 28.7422 85.1035 28.8133 84.9564 28.8872C84.7081 29.0118 84.6746 29.0218 84.4969 29.0244C84.3173 29.0269 84.2887 29.0192 84.0493 28.9036C83.6539 28.7127 83.3777 28.6301 82.8729 28.5517C82.289 28.461 82.1604 28.4526 81.3732 28.454C80.9282 28.4548 80.56 28.4595 80.5549 28.4645ZM42.3752 28.5841C42.2783 28.6041 42.2006 28.6743 42.1333 28.803C42.1052 28.8565 42.0755 28.9061 42.0671 28.9131C42.0586 28.9201 42.0124 28.9834 41.964 29.0538C41.9157 29.1241 41.8533 29.2092 41.8257 29.2428C41.7978 29.2765 41.729 29.3595 41.6727 29.4273C41.5246 29.6055 41.4717 29.6795 41.4039 29.8018C41.3707 29.8616 41.3341 29.9105 41.3226 29.9105C41.3111 29.9105 41.3019 29.9252 41.3019 29.9432C41.3019 29.9612 41.2789 29.9925 41.2507 30.0128C41.2226 30.0331 41.1996 30.0631 41.1996 30.0796C41.1996 30.0961 41.1822 30.1162 41.1612 30.1243C41.14 30.1324 41.1229 30.1557 41.1229 30.1761C41.1229 30.1965 41.1142 30.2169 41.1037 30.2217C41.0643 30.2391 40.6114 30.81 40.6114 30.842C40.6114 30.8501 40.5912 30.8789 40.5666 30.906C40.5421 30.933 40.5184 30.9607 40.4955 30.9892C40.3344 31.1969 40.2002 31.3771 40.1275 31.4828C40.0245 31.6328 39.8633 31.7965 39.8518 31.7626C39.8475 31.7496 39.7513 31.6125 39.6383 31.4577C39.4022 31.1345 39.2345 30.9014 39.1792 30.8198C39.158 30.7886 39.0936 30.7065 39.036 30.6373C38.9785 30.5681 38.8752 30.4252 38.8066 30.3197C38.7381 30.2142 38.6693 30.1164 38.6537 30.1023C38.6381 30.0882 38.5345 29.9501 38.4238 29.7954C38.313 29.6407 38.1634 29.4393 38.091 29.3479C38.0189 29.2564 37.921 29.1241 37.8737 29.0538C37.8266 28.9834 37.7729 28.9106 37.7545 28.892C37.6918 28.8282 37.5655 28.6318 37.586 28.63C37.5972 28.629 37.5834 28.6183 37.5553 28.6062C37.5271 28.5941 36.8819 28.5834 36.1216 28.5824C35.0234 28.581 34.7296 28.5875 34.6935 28.6139C34.6528 28.6436 34.6513 28.66 34.6784 28.7608C34.7145 28.895 34.7406 28.9339 35.0646 29.3351C35.2009 29.5039 35.3625 29.7071 35.4236 29.7868C35.4848 29.8665 35.627 30.0465 35.7395 30.1868C35.852 30.3271 35.9671 30.474 35.9952 30.5132C36.0234 30.5523 36.0643 30.6025 36.086 30.6247C36.164 30.7035 36.3881 30.9747 36.5231 31.1537C36.5983 31.2537 36.7558 31.4493 36.8729 31.5884C37.1271 31.8906 37.13 31.8939 37.209 32.0076C37.2433 32.0568 37.2778 32.1028 37.2857 32.1099C37.2934 32.1169 37.3338 32.1687 37.3755 32.225C37.4169 32.2812 37.4629 32.34 37.4775 32.3557C37.4921 32.3713 37.5379 32.427 37.579 32.4794C37.6202 32.5318 37.688 32.6111 37.7297 32.6556C37.7716 32.7001 37.8527 32.7997 37.9105 32.8771C37.968 32.9545 38.0212 33.0235 38.0286 33.0306C38.0361 33.0376 38.1023 33.1163 38.1757 33.2053C38.2905 33.3444 38.3051 33.3736 38.2777 33.4113C38.1245 33.6218 37.9315 33.8643 37.8348 33.9673C37.7706 34.0358 37.6987 34.1207 37.6749 34.1558C37.6514 34.191 37.6131 34.2427 37.5898 34.2709C37.4374 34.4564 37.3123 34.6172 37.3123 34.6274C37.3123 34.634 37.2862 34.6663 37.2548 34.6991C37.1903 34.7657 37.0108 34.982 36.9586 35.0556C36.9399 35.0819 36.8855 35.1463 36.8374 35.1987C36.7893 35.251 36.7497 35.3033 36.7497 35.3149C36.7497 35.3264 36.7354 35.3503 36.7177 35.3679C36.7001 35.3855 36.6512 35.4442 36.609 35.4984C36.4998 35.6384 36.3857 35.7734 36.3389 35.8182C36.317 35.8393 36.2379 35.9371 36.1638 36.0355C36.019 36.2272 35.8743 36.4042 35.7894 36.4926C35.7605 36.5226 35.7293 36.5673 35.7198 36.5919C35.7103 36.6164 35.6909 36.6365 35.6763 36.6365C35.6617 36.6365 35.65 36.6538 35.65 36.6749C35.65 36.696 35.6408 36.7133 35.6298 36.7133C35.6188 36.7133 35.5891 36.7481 35.564 36.7906C35.539 36.8332 35.4932 36.8953 35.4628 36.9286C35.4321 36.9618 35.3733 37.0316 35.3321 37.0836C35.2909 37.1355 35.2275 37.2113 35.1914 37.252C35.1551 37.2927 35.0797 37.391 35.0234 37.4705C34.9671 37.5499 34.895 37.6428 34.8636 37.6768C34.8319 37.7108 34.806 37.7495 34.806 37.7629C34.806 37.7764 34.7968 37.7874 34.7858 37.7874C34.7482 37.7874 34.6782 37.9359 34.6782 38.0159C34.6782 38.075 34.6932 38.1019 34.7357 38.1189C34.7677 38.1317 35.4019 38.1399 36.1699 38.1373C37.5105 38.1328 37.5476 38.1313 37.5837 38.0819C37.6041 38.054 37.6739 37.9714 37.7391 37.8983C37.8041 37.8253 37.8928 37.7147 37.9363 37.6525C38.0102 37.5471 38.2005 37.292 38.2736 37.2008C38.2913 37.1788 38.3619 37.0918 38.4309 37.0074C38.4997 36.923 38.635 36.7446 38.7314 36.611C38.8278 36.4773 38.9214 36.3565 38.9393 36.3424C38.968 36.32 39.0317 36.2414 39.1672 36.0611C39.3575 35.8084 39.4992 35.6242 39.5114 35.6136C39.5196 35.6065 39.5905 35.5087 39.669 35.3962C39.8273 35.1691 39.9748 34.9998 40.0142 34.9998C40.0286 34.9998 40.0784 35.0589 40.1252 35.131C40.172 35.2032 40.2782 35.3479 40.3613 35.4525C40.4444 35.557 40.5881 35.754 40.6807 35.8902C40.8513 36.141 40.9316 36.2497 41.015 36.3424C41.0827 36.4182 41.2763 36.6832 41.2763 36.7005C41.2763 36.7087 41.3252 36.7811 41.3848 36.8614C41.4443 36.9417 41.517 37.0422 41.5464 37.0847C41.5755 37.1273 41.618 37.1848 41.6408 37.2126C41.7454 37.3398 41.8571 37.4852 41.9157 37.57C41.9507 37.6209 41.9916 37.6763 42.0065 37.693C42.064 37.7586 42.197 37.9642 42.197 37.9879C42.197 38.0017 42.2323 38.0428 42.2755 38.0792L42.3543 38.1454L43.7013 38.1451C44.4422 38.1449 45.0733 38.1381 45.1035 38.1299C45.146 38.1185 45.1608 38.0915 45.1685 38.0117C45.1744 37.949 45.1654 37.8951 45.1455 37.8752C45.1273 37.857 45.1125 37.8361 45.1125 37.8288C45.1125 37.8214 45.0746 37.7775 45.0286 37.7311C44.9825 37.6847 44.9281 37.6132 44.9071 37.5722C44.8864 37.5312 44.7943 37.4104 44.7025 37.3037C44.6107 37.197 44.5015 37.0636 44.4596 37.0074C44.2987 36.7905 44.001 36.4188 43.9818 36.4106C43.9706 36.4059 43.9616 36.3876 43.9616 36.3698C43.9616 36.3521 43.9373 36.3156 43.9077 36.2888C43.878 36.262 43.788 36.1538 43.7077 36.0483C43.4755 35.7438 43.3351 35.5637 43.1696 35.3578C43.0682 35.2311 42.9683 35.1032 42.8699 34.9742C42.7901 34.8687 42.7174 34.7766 42.7087 34.7696C42.689 34.7535 42.3975 34.3702 42.3632 34.315C42.3492 34.2924 42.3128 34.248 42.2827 34.2163C42.2118 34.1421 41.9924 33.857 41.9924 33.8392C41.9924 33.8318 41.9663 33.7978 41.9349 33.7638C41.7303 33.5436 41.5832 33.3325 41.5832 33.2589C41.5832 33.2299 41.6103 33.1961 41.6471 33.1793C41.6822 33.1633 41.7111 33.1405 41.7111 33.1286C41.7111 33.1167 41.7395 33.0822 41.7743 33.052C41.809 33.0217 41.8691 32.9499 41.908 32.8923C42.0116 32.7384 42.1389 32.5772 42.2939 32.404C42.4576 32.2212 42.4696 32.2068 42.5824 32.0587C42.6305 31.9954 42.6775 31.9379 42.6867 31.9309C42.6957 31.9238 42.7543 31.849 42.8164 31.7646C42.8786 31.6802 42.9747 31.558 43.03 31.4931C43.1415 31.362 43.1555 31.3446 43.3287 31.1253C43.3954 31.0409 43.4655 30.9546 43.4844 30.9335C43.5031 30.9124 43.5806 30.8145 43.6563 30.7161C43.732 30.6176 43.8555 30.4623 43.9309 30.3708C44.0061 30.2794 44.0859 30.1816 44.1082 30.1534C44.1302 30.1253 44.1956 30.0487 44.2532 29.9832C44.3107 29.9178 44.3695 29.8487 44.3836 29.8298C44.3977 29.8109 44.4432 29.7493 44.4849 29.6931C44.57 29.5784 44.7736 29.333 44.969 29.1099C45.1045 28.9552 45.1854 28.7957 45.1877 28.6777C45.1889 28.6192 45.1764 28.6064 45.1061 28.5944C44.9864 28.5742 42.4699 28.5647 42.3752 28.5841ZM47.8246 28.6294C47.7914 28.6915 47.7985 38.078 47.8318 38.1113C47.8597 38.1392 50.1396 38.1392 50.1675 38.1113C50.1928 38.0861 50.1887 28.6359 50.1636 28.6107C50.1542 28.6012 49.6302 28.59 48.9992 28.5858C47.874 28.5783 47.8515 28.5792 47.8246 28.6294ZM94.7545 28.6038C94.6959 28.614 94.6632 28.6358 94.655 28.6701C94.6483 28.6983 94.6417 30.8183 94.6399 33.3813C94.6373 37.6792 94.6404 38.0446 94.6793 38.0835C94.7164 38.1207 94.8358 38.1272 95.6895 38.1392C96.2219 38.1466 96.7352 38.1444 96.8301 38.1342L97.0027 38.1158V28.6132L96.8592 28.5964C96.6853 28.576 94.8772 28.5823 94.7545 28.6038ZM70.3597 30.4237C71.0954 30.4999 71.5796 30.6922 71.8913 31.0321C72.266 31.4407 72.3685 31.8172 72.4005 32.9027C72.4409 34.2775 72.356 35.0502 72.1217 35.4345C71.9731 35.6783 71.611 35.9869 71.3136 36.1236C70.8896 36.3183 70.5722 36.368 69.7533 36.368C69.1091 36.368 68.9288 36.3482 68.504 36.2306C68.171 36.1383 67.8657 35.9649 67.6437 35.7418C67.5094 35.6067 67.3358 35.2861 67.2698 35.0509C67.1549 34.642 67.0805 34.0441 67.0813 33.5392C67.0833 32.4259 67.1795 31.8119 67.4225 31.3639C67.5327 31.161 67.7953 30.8551 67.9153 30.7905C68.0539 30.7157 68.2582 30.6124 68.3339 30.5788C68.4168 30.542 68.8183 30.4477 68.9989 30.4226C69.2155 30.3926 70.0656 30.3932 70.3597 30.4237ZM59.0505 33.8521C59.2121 33.8632 59.3732 33.8786 59.4085 33.8862C59.4435 33.8939 59.5701 33.9071 59.6898 33.9156C59.8092 33.9241 59.9302 33.9348 59.9583 33.9393C59.9865 33.9438 60.0182 33.9483 60.0292 33.9493C60.0537 33.9517 60.0297 34.6686 59.9929 35.0216C59.9642 35.299 59.8778 35.6153 59.7939 35.7512C59.6844 35.9281 59.3714 36.1474 59.1724 36.1863C59.1405 36.1926 59.0625 36.2168 58.9993 36.2401C58.784 36.3193 58.2952 36.3517 57.4393 36.3435C56.9961 36.3392 56.5876 36.3282 56.5314 36.3189C56.2091 36.2658 55.8902 36.1658 55.712 36.0616C55.588 35.9892 55.389 35.743 55.3041 35.5569C55.1933 35.3138 55.1647 34.7869 55.2532 34.6144C55.2915 34.5396 55.4417 34.3415 55.536 34.2413C55.6255 34.1464 56.0327 33.988 56.2841 33.9506C56.5045 33.9176 57.0577 33.8529 57.2219 33.8408C57.4556 33.8235 58.7517 33.8315 59.0505 33.8521Z" fill="#89898A"/>
<path fill-rule="evenodd" clip-rule="evenodd" d="M14.9816 20.0223C14.9754 20.0277 14.7114 20.0394 14.3949 20.0483C12.3713 20.1051 10.2527 20.4335 8.92198 20.8966C7.6058 21.3547 6.57214 21.9951 5.69885 22.8935C5.15696 23.451 4.75867 24.0093 4.40045 24.7136C3.82272 25.8493 3.53079 26.9863 3.25976 29.1565C3.0658 30.7092 2.99992 31.8329 3.00409 33.5169C3.0091 35.5346 3.17554 37.382 3.52826 39.335C3.79633 40.8193 4.31375 42.0047 5.17051 43.0972C5.44334 43.4451 5.46761 43.4728 5.77115 43.7821C6.8563 44.8879 8.15245 45.6263 9.67642 46.0069C10.4518 46.2005 11.6423 46.3754 12.7326 46.456C13.7807 46.5335 15.2183 46.5726 17.0162 46.5726C20.6326 46.5726 22.904 46.1992 24.7141 45.3071C25.5117 44.914 26.136 44.4655 26.7755 43.826C27.7015 42.9 28.2775 41.951 28.7173 40.6265C29.2078 39.1502 29.417 37.8475 29.4733 35.9209C29.4828 35.6044 29.4938 35.3392 29.4981 35.3315C29.5132 35.3042 29.5477 33.5428 29.5477 32.788C29.5477 31.0896 29.4708 29.8301 29.2912 28.588C29.0595 26.9845 28.7629 25.9169 28.2697 24.9111C27.8464 24.0478 27.386 23.4109 26.7143 22.7594C26.1092 22.1725 25.4492 21.7143 24.6374 21.3175C23.2562 20.6424 21.7561 20.281 19.8678 20.1684C19.0696 20.1209 18.9938 20.117 18.3589 20.0911C18.0143 20.077 17.6115 20.0593 17.4638 20.0517C17.1235 20.0342 14.9967 20.009 14.9816 20.0223ZM17.3652 28.3646C18.025 28.4736 18.5927 28.7795 19.0688 29.2824C19.3896 29.6213 19.5978 29.9679 19.7383 30.3968C19.8705 30.8005 19.8678 30.7054 19.8678 34.8501C19.8678 38.6744 19.8673 38.7089 19.8166 38.7596C19.767 38.8092 19.7314 38.8107 18.6047 38.8107C17.5367 38.8107 17.4396 38.8072 17.39 38.766L17.3361 38.7212L17.3288 35.2943C17.322 32.0763 17.3187 31.858 17.2753 31.7139C17.1054 31.1493 16.6612 30.7103 16.1084 30.5608C15.9553 30.5194 15.7386 30.5155 13.3847 30.5125C11.9781 30.5107 10.7972 30.519 10.7605 30.531C10.7237 30.543 10.6806 30.5815 10.6646 30.6167C10.6432 30.6635 10.6355 31.7488 10.6355 34.6945C10.6355 38.6744 10.635 38.7089 10.5843 38.7596C10.5347 38.8092 10.4991 38.8107 9.37524 38.8107C8.36858 38.8107 8.20987 38.8056 8.16046 38.7709L8.10361 38.7311V33.5793C8.10361 28.457 8.10389 28.4273 8.15491 28.3763C8.20585 28.3253 8.23516 28.325 12.6752 28.3265C16.4223 28.3278 17.1798 28.334 17.3652 28.3646ZM24.3828 28.3881L24.4456 28.4508V38.676L24.3926 38.7434L24.3396 38.8107H21.9942L21.9412 38.7434L21.8882 38.676V28.4508L21.9509 28.3881L22.0137 28.3253H24.32L24.3828 28.3881ZM15.2688 32.4083C15.3136 32.4489 15.3156 32.5808 15.3156 35.5796C15.3156 38.6744 15.315 38.709 15.2644 38.7596C15.2147 38.8093 15.1792 38.8107 13.9857 38.8107C12.7922 38.8107 12.7567 38.8093 12.707 38.7596C12.6564 38.709 12.6558 38.6744 12.6558 35.5884C12.6558 32.5024 12.6564 32.4678 12.707 32.4172C12.7567 32.3674 12.7922 32.366 13.9901 32.366C15.1005 32.366 15.2266 32.3702 15.2688 32.4083Z" fill="black"/>
<path fill-rule="evenodd" clip-rule="evenodd" d="M14.9816 20.0223C14.9754 20.0277 14.7114 20.0394 14.3949 20.0483C12.3713 20.1051 10.2527 20.4335 8.92198 20.8966C7.6058 21.3547 6.57214 21.9951 5.69885 22.8935C5.15696 23.451 4.75867 24.0093 4.40045 24.7136C3.82272 25.8493 3.53079 26.9863 3.25976 29.1565C3.0658 30.7092 2.99992 31.8329 3.00409 33.5169C3.0091 35.5346 3.17554 37.382 3.52826 39.335C3.79633 40.8193 4.31375 42.0047 5.17051 43.0972C5.44334 43.4451 5.46761 43.4728 5.77115 43.7821C6.8563 44.8879 8.15245 45.6263 9.67642 46.0069C10.4518 46.2005 11.6423 46.3754 12.7326 46.456C13.7807 46.5335 15.2183 46.5726 17.0162 46.5726C20.6326 46.5726 22.904 46.1992 24.7141 45.3071C25.5117 44.914 26.136 44.4655 26.7755 43.826C27.7015 42.9 28.2775 41.951 28.7173 40.6265C29.2078 39.1502 29.417 37.8475 29.4733 35.9209C29.4828 35.6044 29.4938 35.3392 29.4981 35.3315C29.5132 35.3042 29.5477 33.5428 29.5477 32.788C29.5477 31.0896 29.4708 29.8301 29.2912 28.588C29.0595 26.9845 28.7629 25.9169 28.2697 24.9111C27.8464 24.0478 27.386 23.4109 26.7143 22.7594C26.1092 22.1725 25.4492 21.7143 24.6374 21.3175C23.2562 20.6424 21.7561 20.281 19.8678 20.1684C19.0696 20.1209 18.9938 20.117 18.3589 20.0911C18.0143 20.077 17.6115 20.0593 17.4638 20.0517C17.1235 20.0342 14.9967 20.009 14.9816 20.0223ZM17.3652 28.3646C18.025 28.4736 18.5927 28.7795 19.0688 29.2824C19.3896 29.6213 19.5978 29.9679 19.7383 30.3968C19.8705 30.8005 19.8678 30.7054 19.8678 34.8501C19.8678 38.6744 19.8673 38.7089 19.8166 38.7596C19.767 38.8092 19.7314 38.8107 18.6047 38.8107C17.5367 38.8107 17.4396 38.8072 17.39 38.766L17.3361 38.7212L17.3288 35.2943C17.322 32.0763 17.3187 31.858 17.2753 31.7139C17.1054 31.1493 16.6612 30.7103 16.1084 30.5608C15.9553 30.5194 15.7386 30.5155 13.3847 30.5125C11.9781 30.5107 10.7972 30.519 10.7605 30.531C10.7237 30.543 10.6806 30.5815 10.6646 30.6167C10.6432 30.6635 10.6355 31.7488 10.6355 34.6945C10.6355 38.6744 10.635 38.7089 10.5843 38.7596C10.5347 38.8092 10.4991 38.8107 9.37524 38.8107C8.36858 38.8107 8.20987 38.8056 8.16046 38.7709L8.10361 38.7311V33.5793C8.10361 28.457 8.10389 28.4273 8.15491 28.3763C8.20585 28.3253 8.23516 28.325 12.6752 28.3265C16.4223 28.3278 17.1798 28.334 17.3652 28.3646ZM24.3828 28.3881L24.4456 28.4508V38.676L24.3926 38.7434L24.3396 38.8107H21.9942L21.9412 38.7434L21.8882 38.676V28.4508L21.9509 28.3881L22.0137 28.3253H24.32L24.3828 28.3881ZM15.2688 32.4083C15.3136 32.4489 15.3156 32.5808 15.3156 35.5796C15.3156 38.6744 15.315 38.709 15.2644 38.7596C15.2147 38.8093 15.1792 38.8107 13.9857 38.8107C12.7922 38.8107 12.7567 38.8093 12.707 38.7596C12.6564 38.709 12.6558 38.6744 12.6558 35.5884C12.6558 32.5024 12.6564 32.4678 12.707 32.4172C12.7567 32.3674 12.7922 32.366 13.9901 32.366C15.1005 32.366 15.2266 32.3702 15.2688 32.4083Z" fill="#FF6200"/>
</g>
<defs>
<clipPath id="clip0_187_4078">
<rect width="94" height="26.5832" fill="white" transform="translate(3 20)"/>
</clipPath>
</defs>
</svg>
